<svg width="177" height="55" viewBox="0 0 177 55" fill="none" xmlns="http://www.w3.org/2000/svg">
<path d="M50.4565 31L50.3765 30.48C50.3765 30.4 50.4032 30.36 50.4565 30.36L50.9365 30.68C50.9632 30.6933 50.9898 30.72 51.0165 30.76C51.0565 30.7867 51.0832 30.8067 51.0965 30.82C51.1232 30.8333 51.1498 30.8533 51.1765 30.88C51.1898 30.88 51.2032 30.8933 51.2165 30.92C51.2432 30.96 51.2565 31.0267 51.2565 31.12C51.2565 31.52 51.0765 32.0133 50.7165 32.6C50.3698 33.1733 49.8832 33.76 49.2565 34.36C48.6432 34.9467 47.8232 35.4467 46.7965 35.86C45.7698 36.2733 44.6298 36.48 43.3765 36.48C42.1232 36.48 40.9232 36.08 39.7765 35.28C38.6298 34.48 38.0565 33.4533 38.0565 32.2C38.0565 31.2933 38.2498 30.4533 38.6365 29.68C39.0365 28.9067 39.5298 28.2867 40.1165 27.82C40.7032 27.34 41.3432 26.9133 42.0365 26.54C42.7298 26.1533 43.3698 25.8667 43.9565 25.68C45.3298 25.2267 46.0165 24.9733 46.0165 24.92C46.0165 24.8133 45.9365 24.7067 45.7765 24.6C44.9765 24.0533 44.5765 23.3067 44.5765 22.36C44.5765 21.4 45.1098 20.48 46.1765 19.6C47.2565 18.72 48.7098 18.28 50.5365 18.28C51.1898 18.28 51.8832 18.36 52.6165 18.52C54.0565 18.8533 54.7765 19.3067 54.7765 19.88C54.7765 20.04 54.7032 20.24 54.5565 20.48C54.4098 20.7067 54.2898 20.92 54.1965 21.12C54.1032 21.3067 54.0298 21.4 53.9765 21.4C53.9232 21.4 53.8698 21.32 53.8165 21.16C53.6565 20.6133 53.2432 20.08 52.5765 19.56C51.9232 19.0267 51.1298 18.76 50.1965 18.76C49.2765 18.76 48.5232 18.8533 47.9365 19.04C47.3365 19.2 46.9032 19.4267 46.6365 19.72C46.1698 20.2267 45.9365 20.74 45.9365 21.26C45.9365 21.7667 46.0765 22.2867 46.3565 22.82C46.6498 23.3533 47.0165 23.7467 47.4565 24C47.9898 24.2533 48.2565 24.4133 48.2565 24.48C48.2565 24.7067 48.2032 24.8867 48.0965 25.02C47.9898 25.1533 47.7632 25.24 47.4165 25.28C46.2432 25.4133 45.2098 25.6533 44.3165 26C43.4232 26.3467 42.7098 26.74 42.1765 27.18C41.6565 27.6067 41.2298 28.1 40.8965 28.66C40.3365 29.6067 40.0565 30.6933 40.0565 31.92C40.0565 32.5867 40.1965 33.1733 40.4765 33.68C40.7565 34.1867 41.1232 34.5733 41.5765 34.84C42.8298 35.3333 43.7632 35.6 44.3765 35.64C46.2298 35.64 47.7032 35.1667 48.7965 34.22C49.9032 33.2733 50.4565 32.2 50.4565 31ZM55.0162 27.06C55.0962 26.9667 55.1562 26.9 55.1962 26.86C55.2362 26.82 55.2895 26.8 55.3562 26.8C55.4228 26.8 55.4562 26.8467 55.4562 26.94C55.4562 26.9667 55.4628 27.0333 55.4762 27.14C55.4895 27.2467 55.4962 27.3467 55.4962 27.44C55.5095 27.52 55.5228 27.6 55.5362 27.68C55.7762 29.4933 56.2162 31.3067 56.8562 33.12C57.1762 32.6533 57.7628 31.7467 58.6162 30.4C59.4695 29.04 59.9362 28.28 60.0162 28.12C60.1762 27.8 60.2962 27.6267 60.3762 27.6C60.6562 27.52 60.8695 27.48 61.0162 27.48C61.1762 27.48 61.2562 27.5 61.2562 27.54C61.2562 27.58 61.2495 27.6067 61.2362 27.62C61.2228 27.6333 61.1962 27.6533 61.1562 27.68C61.1295 27.6933 61.0562 27.7667 60.9362 27.9C60.8295 28.0333 60.4028 28.7 59.6562 29.9C58.9095 31.0867 58.0562 32.32 57.0962 33.6C57.5895 34.72 58.1228 35.28 58.6962 35.28C59.1628 35.28 60.0962 34.7067 61.4962 33.56C62.6028 32.6133 63.4028 31.7733 63.8962 31.04C63.9495 30.96 64.0028 30.92 64.0562 30.92C64.1095 30.92 64.1362 30.94 64.1362 30.98C64.1362 31.02 64.1228 31.0667 64.0962 31.12C63.4028 32.0933 62.5762 33.0133 61.6162 33.88C59.9362 35.3733 58.7628 36.12 58.0962 36.12C57.8028 36.12 57.5895 36.0533 57.4562 35.92L57.1762 35.64C57.1228 35.5867 57.0428 35.4667 56.9362 35.28C56.6962 34.8533 56.5362 34.5733 56.4562 34.44C54.6962 36.5333 53.3762 38 52.4962 38.84C50.2828 41.0533 48.3228 42.8133 46.6162 44.12C46.4562 44.2267 46.3362 44.2933 46.2562 44.32C46.1762 44.36 46.0562 44.38 45.8962 44.38C45.7228 44.3933 45.4828 44.4267 45.1762 44.48C44.8562 44.5333 44.6762 44.56 44.6362 44.56C44.5962 44.56 44.5762 44.5333 44.5762 44.48C44.5762 44.4667 44.6962 44.3733 44.9362 44.2C47.9228 42.1733 50.3095 40.2667 52.0962 38.48C53.7362 36.8933 55.1095 35.4133 56.2162 34.04C55.6562 32.9867 55.1362 31.82 54.6562 30.54C54.1762 29.26 53.9362 28.3867 53.9362 27.92C53.9362 27.8533 54.0562 27.74 54.2962 27.58C54.5362 27.42 54.6962 27.3133 54.7762 27.26C54.8562 27.2067 54.9362 27.14 55.0162 27.06ZM69.381 23.04C70.4743 22.1333 71.4277 21.3133 72.241 20.58C73.0677 19.8333 73.941 18.96 74.861 17.96C75.7943 16.96 76.561 16.02 77.161 15.14C77.761 14.2467 78.261 13.28 78.661 12.24C79.061 11.1867 79.261 10.1733 79.261 9.2C79.261 8.97333 79.2143 8.78666 79.121 8.64C79.0277 8.48 78.901 8.4 78.741 8.4C78.141 8.4 77.2477 9.26 76.061 10.98C74.8743 12.6867 73.621 14.8133 72.301 17.36L69.381 23.04ZM67.101 25.24C64.381 27.2 63.0143 28.1733 63.001 28.16C62.961 28.16 62.941 28.1333 62.941 28.08C62.941 28.0267 62.981 27.9733 63.061 27.92C65.4743 26.1733 66.9143 25.1067 67.381 24.72L70.861 18.12C70.981 17.8933 71.241 17.3933 71.641 16.62C72.041 15.8467 72.321 15.3133 72.481 15.02C72.6543 14.7267 72.921 14.2533 73.281 13.6C73.6543 12.9467 73.9743 12.4467 74.241 12.1C74.5077 11.74 74.8343 11.3133 75.221 10.82C75.9143 9.94 76.741 9.16 77.701 8.48C78.621 7.78667 79.4477 7.44 80.181 7.44C80.421 7.44 80.5943 7.54 80.701 7.74C80.8077 7.94 80.861 8.13333 80.861 8.32C80.861 10.5333 79.8677 12.8733 77.881 15.34C77.2143 16.1667 76.581 16.9 75.981 17.54C75.3943 18.18 74.6477 18.9067 73.741 19.72C72.621 20.7333 71.061 22.0533 69.061 23.68L66.221 29.4C66.781 28.84 67.401 28.3 68.081 27.78C68.7743 27.26 69.3077 26.8867 69.681 26.66C70.5877 26.1133 71.3677 25.84 72.021 25.84C72.4477 25.84 72.7943 25.9933 73.061 26.3C73.3277 26.6067 73.461 27.0267 73.461 27.56C73.461 28.08 73.2343 28.78 72.781 29.66C72.3277 30.5267 71.8743 31.4267 71.421 32.36C70.9677 33.2933 70.741 34.1067 70.741 34.8C70.741 35.2533 70.941 35.48 71.341 35.48C71.781 35.48 72.401 35.24 73.201 34.76C74.0143 34.2667 74.8077 33.68 75.581 33C76.3677 32.32 76.9677 31.6667 77.381 31.04C77.4343 30.96 77.4877 30.92 77.541 30.92C77.5943 30.92 77.621 30.94 77.621 30.98C77.621 31.02 77.6077 31.0667 77.581 31.12C76.861 32.08 76.141 32.8733 75.421 33.5C74.7143 34.1267 73.8677 34.7267 72.881 35.3C71.9077 35.8733 71.101 36.16 70.461 36.16C69.5543 36.16 69.101 35.6667 69.101 34.68C69.101 34.04 69.3477 33.2267 69.841 32.24C70.3343 31.2533 70.8277 30.32 71.321 29.44C71.8143 28.56 72.061 27.9667 72.061 27.66C72.061 27.3533 71.981 27.1067 71.821 26.92C71.661 26.7333 71.4477 26.64 71.181 26.64C70.4743 26.64 69.5143 27.1733 68.301 28.24C67.0877 29.2933 66.2477 30.1733 65.781 30.88C64.301 33.08 63.4477 34.7467 63.221 35.88C63.1943 35.9867 63.061 36.04 62.821 36.04C62.581 36.04 62.381 36.06 62.221 36.1C62.061 36.14 61.9677 36.16 61.941 36.16C61.701 36.16 61.581 36.0667 61.581 35.88C61.581 35.7467 61.8677 35.1133 62.441 33.98C63.0143 32.8467 63.5277 31.8667 63.981 31.04C65.5943 27.96 66.6343 26.0267 67.101 25.24ZM76.6195 28.04C76.4995 28.12 76.4195 28.16 76.3795 28.16C76.3528 28.16 76.3395 28.1333 76.3395 28.08C76.3395 28.0267 76.3795 27.9733 76.4595 27.92C77.3128 27.3333 78.0461 27.04 78.6595 27.04C79.5661 27.04 80.0195 27.4533 80.0195 28.28C80.0195 28.5733 79.7928 29.12 79.3395 29.92C78.8861 30.7067 78.4328 31.5333 77.9795 32.4C77.5261 33.2667 77.2995 33.9467 77.2995 34.44C77.2995 35.1333 77.7661 35.48 78.6995 35.48C79.1528 35.48 79.7461 35.2667 80.4795 34.84C81.2261 34.4133 81.8795 33.9667 82.4395 33.5C82.9995 33.0333 83.4928 32.5667 83.9195 32.1C84.3461 31.6333 84.6061 31.32 84.6995 31.16C84.8061 31 84.8861 30.92 84.9395 30.92C84.9928 30.92 85.0195 30.94 85.0195 30.98C85.0195 31.02 85.0061 31.0667 84.9795 31.12C84.3261 32 83.6061 32.7867 82.8195 33.48C81.9661 34.2933 81.0328 34.9467 80.0195 35.44C79.0061 35.92 78.1995 36.16 77.5995 36.16C76.9995 36.16 76.5328 36.0267 76.1995 35.76C75.8661 35.4933 75.6995 35.0933 75.6995 34.56C75.6995 34.0267 75.9461 33.3067 76.4395 32.4C76.9328 31.4933 77.4261 30.6533 77.9195 29.88C78.4128 29.0933 78.6595 28.5733 78.6595 28.32C78.6595 28.0533 78.5995 27.8467 78.4795 27.7C78.3728 27.5533 78.2328 27.48 78.0595 27.48C77.6595 27.48 77.1795 27.6667 76.6195 28.04ZM81.0995 22.68C81.0995 22.3867 81.2328 22.08 81.4995 21.76C81.7395 21.44 81.9795 21.28 82.2195 21.28C82.4595 21.28 82.6395 21.3533 82.7595 21.5C82.8795 21.6333 82.9395 21.8267 82.9395 22.08C82.9395 22.3333 82.8195 22.62 82.5795 22.94C82.3395 23.2467 82.0595 23.4 81.7395 23.4C81.3128 23.4 81.0995 23.16 81.0995 22.68ZM87.0599 29C86.0999 30.6133 85.6199 31.9867 85.6199 33.12C85.6199 33.8 85.8399 34.3867 86.2799 34.88C86.7199 35.36 87.2799 35.6 87.9599 35.6C88.6399 35.6 89.4333 35.2467 90.3399 34.54C91.2599 33.8333 92.0333 32.9267 92.6599 31.82C93.2999 30.7 93.6199 29.6133 93.6199 28.56C93.6199 27.9333 93.4266 27.4933 93.0399 27.24C92.6666 26.9733 92.2599 26.84 91.8199 26.84C90.6466 26.84 89.0599 27.56 87.0599 29ZM87.9799 25.24C85.2599 27.2 83.8933 28.1733 83.8799 28.16C83.8399 28.16 83.8199 28.1333 83.8199 28.08C83.8199 28.0267 83.8599 27.9733 83.9399 27.92C86.3533 26.1733 87.7933 25.1067 88.2599 24.72L91.7399 18.12C91.8999 17.8267 92.2066 17.2467 92.6599 16.38C93.1266 15.5 93.4599 14.88 93.6599 14.52C93.8599 14.1467 94.1799 13.6 94.6199 12.88C95.0466 12.16 95.4333 11.5933 95.7799 11.18C96.7399 10.0067 97.6733 9.10666 98.5799 8.48C99.4999 7.78667 100.327 7.44 101.06 7.44C101.3 7.44 101.473 7.54 101.58 7.74C101.687 7.94 101.74 8.13333 101.74 8.32C101.74 10.5333 100.747 12.8733 98.7599 15.34C98.0933 16.1667 97.4599 16.9 96.8599 17.54C96.2733 18.18 95.5266 18.9067 94.6199 19.72C93.4999 20.7333 91.9399 22.0533 89.9399 23.68L87.3799 28.4C89.6333 26.8267 91.5399 26.04 93.0999 26.04C93.6199 26.04 94.0599 26.2067 94.4199 26.54C94.7933 26.86 94.9799 27.2933 94.9799 27.84C94.9799 28.6533 94.7133 29.5733 94.1799 30.6C93.6466 31.6133 92.9799 32.5467 92.1799 33.4C91.3933 34.24 90.5133 34.9533 89.5399 35.54C88.5666 36.1133 87.6733 36.4 86.8599 36.4C86.0599 36.4 85.4066 36.1467 84.8999 35.64C84.3933 35.12 84.1399 34.44 84.1399 33.6C84.1399 32.7467 84.3533 31.8667 84.7799 30.96C85.2066 30.04 86.2733 28.1333 87.9799 25.24ZM90.2599 23.04C91.3533 22.1333 92.3066 21.3133 93.1199 20.58C93.9466 19.8333 94.8199 18.96 95.7399 17.96C96.6733 16.96 97.4399 16.02 98.0399 15.14C98.6399 14.2467 99.1399 13.28 99.5399 12.24C99.9399 11.1867 100.14 10.1733 100.14 9.2C100.14 8.97333 100.093 8.78666 99.9999 8.64C99.9066 8.48 99.7799 8.4 99.6199 8.4C99.0199 8.4 98.1266 9.26 96.9399 10.98C95.7533 12.6867 94.4999 14.8133 93.1799 17.36L90.2599 23.04ZM97.3421 28.04C97.2221 28.12 97.1421 28.16 97.1021 28.16C97.0754 28.16 97.0621 28.1333 97.0621 28.08C97.0621 28.0267 97.1021 27.9733 97.1821 27.92C98.0354 27.3333 98.7688 27.04 99.3821 27.04C100.289 27.04 100.742 27.4533 100.742 28.28C100.742 28.5733 100.515 29.12 100.062 29.92C99.6088 30.7067 99.1554 31.5333 98.7021 32.4C98.2488 33.2667 98.0221 33.9467 98.0221 34.44C98.0221 35.1333 98.4888 35.48 99.4221 35.48C99.8754 35.48 100.469 35.2667 101.202 34.84C101.949 34.4133 102.602 33.9667 103.162 33.5C103.722 33.0333 104.215 32.5667 104.642 32.1C105.069 31.6333 105.329 31.32 105.422 31.16C105.529 31 105.609 30.92 105.662 30.92C105.715 30.92 105.742 30.94 105.742 30.98C105.742 31.02 105.729 31.0667 105.702 31.12C105.049 32 104.329 32.7867 103.542 33.48C102.689 34.2933 101.755 34.9467 100.742 35.44C99.7288 35.92 98.9221 36.16 98.3221 36.16C97.7221 36.16 97.2554 36.0267 96.9221 35.76C96.5888 35.4933 96.4221 35.0933 96.4221 34.56C96.4221 34.0267 96.6688 33.3067 97.1621 32.4C97.6554 31.4933 98.1488 30.6533 98.6421 29.88C99.1354 29.0933 99.3821 28.5733 99.3821 28.32C99.3821 28.0533 99.3221 27.8467 99.2021 27.7C99.0954 27.5533 98.9554 27.48 98.7821 27.48C98.3821 27.48 97.9021 27.6667 97.3421 28.04ZM101.822 22.68C101.822 22.3867 101.955 22.08 102.222 21.76C102.462 21.44 102.702 21.28 102.942 21.28C103.182 21.28 103.362 21.3533 103.482 21.5C103.602 21.6333 103.662 21.8267 103.662 22.08C103.662 22.3333 103.542 22.62 103.302 22.94C103.062 23.2467 102.782 23.4 102.462 23.4C102.035 23.4 101.822 23.16 101.822 22.68ZM104.583 28.16C104.556 28.16 104.543 28.1333 104.543 28.08C104.543 28.0267 104.576 27.9733 104.643 27.92C104.843 27.7867 105.043 27.6467 105.243 27.5C105.456 27.3533 106.289 27.16 107.743 26.92L110.983 20.92C111.143 20.5867 111.369 20.2867 111.663 20.02C111.929 19.74 112.196 19.6 112.463 19.6C112.476 19.6 112.496 19.6 112.523 19.6C112.749 19.6 112.863 19.6533 112.863 19.76C112.863 19.8667 112.529 20.4867 111.863 21.62C111.196 22.7533 110.276 24.4533 109.103 26.72L112.863 26.12C112.943 26.12 112.983 26.1333 112.983 26.16C112.983 26.24 112.883 26.34 112.683 26.46C112.496 26.58 112.349 26.64 112.243 26.64C112.136 26.64 111.009 26.8133 108.863 27.16L106.943 31.16C106.223 32.76 105.863 33.8 105.863 34.28C105.863 34.76 106.003 35.1533 106.283 35.46C106.563 35.7667 106.916 35.92 107.343 35.92C108.383 35.92 109.236 35.7333 109.903 35.36C110.583 34.9867 111.289 34.4733 112.023 33.82C112.769 33.1667 113.369 32.5867 113.823 32.08C114.289 31.56 114.563 31.24 114.643 31.12C114.736 30.9867 114.809 30.92 114.863 30.92C114.916 30.92 114.943 30.94 114.943 30.98C114.943 31.02 114.929 31.0667 114.903 31.12C114.263 31.96 113.596 32.7133 112.903 33.38C112.209 34.0333 111.603 34.5533 111.083 34.94C110.576 35.3267 109.936 35.66 109.163 35.94C108.403 36.22 107.629 36.36 106.843 36.36C106.069 36.36 105.456 36.1867 105.003 35.84C104.563 35.4933 104.343 34.9467 104.343 34.2C104.343 33.4533 104.729 32.4 105.503 31.04L107.423 27.48C105.743 27.8133 104.856 28.0133 104.763 28.08C104.683 28.1333 104.623 28.16 104.583 28.16ZM114.022 28.04C113.902 28.12 113.822 28.16 113.782 28.16C113.755 28.16 113.742 28.1333 113.742 28.08C113.742 28.0267 113.782 27.9733 113.862 27.92C114.715 27.3333 115.448 27.04 116.062 27.04C116.968 27.04 117.422 27.4533 117.422 28.28C117.422 28.5733 117.195 29.12 116.742 29.92C116.288 30.7067 115.835 31.5333 115.382 32.4C114.928 33.2667 114.702 33.9467 114.702 34.44C114.702 35.1333 115.168 35.48 116.102 35.48C116.555 35.48 117.148 35.2667 117.882 34.84C118.628 34.4133 119.282 33.9667 119.842 33.5C120.402 33.0333 120.895 32.5667 121.322 32.1C121.748 31.6333 122.008 31.32 122.102 31.16C122.208 31 122.288 30.92 122.342 30.92C122.395 30.92 122.422 30.94 122.422 30.98C122.422 31.02 122.408 31.0667 122.382 31.12C121.728 32 121.008 32.7867 120.222 33.48C119.368 34.2933 118.435 34.9467 117.422 35.44C116.408 35.92 115.602 36.16 115.002 36.16C114.402 36.16 113.935 36.0267 113.602 35.76C113.268 35.4933 113.102 35.0933 113.102 34.56C113.102 34.0267 113.348 33.3067 113.842 32.4C114.335 31.4933 114.828 30.6533 115.322 29.88C115.815 29.0933 116.062 28.5733 116.062 28.32C116.062 28.0533 116.002 27.8467 115.882 27.7C115.775 27.5533 115.635 27.48 115.462 27.48C115.062 27.48 114.582 27.6667 114.022 28.04ZM118.502 22.68C118.502 22.3867 118.635 22.08 118.902 21.76C119.142 21.44 119.382 21.28 119.622 21.28C119.862 21.28 120.042 21.3533 120.162 21.5C120.282 21.6333 120.342 21.8267 120.342 22.08C120.342 22.3333 120.222 22.62 119.982 22.94C119.742 23.2467 119.462 23.4 119.142 23.4C118.715 23.4 118.502 23.16 118.502 22.68ZM127.822 28L127.702 27.96C127.702 28.24 127.809 28.5067 128.022 28.76C128.249 29 128.516 29.16 128.822 29.24C128.849 29.0667 128.862 28.8467 128.862 28.58C128.862 28.5133 128.862 28.44 128.862 28.36C128.862 27.9867 128.749 27.5933 128.522 27.18C128.296 26.7667 128.116 26.56 127.982 26.56C127.796 26.56 127.702 26.8267 127.702 27.36C127.782 27.3867 127.862 27.44 127.942 27.52C128.022 27.6 128.062 27.6733 128.062 27.74C128.062 27.8067 128.029 27.8667 127.962 27.92C127.896 27.9733 127.849 28 127.822 28ZM128.742 29.6C128.209 29.5733 127.729 29.3667 127.302 28.98C126.889 28.5933 126.662 28.1333 126.622 27.6C125.836 27.6 125.036 27.9667 124.222 28.7C123.422 29.4333 122.776 30.3267 122.282 31.38C121.789 32.4333 121.542 33.4267 121.542 34.36C121.542 34.72 121.649 35.06 121.862 35.38C122.089 35.6867 122.409 35.84 122.822 35.84C124.022 35.84 125.229 35.1733 126.442 33.84C127.669 32.5067 128.436 31.0933 128.742 29.6ZM132.282 27.8C132.322 27.8 132.342 27.8267 132.342 27.88C132.342 27.9333 132.296 27.9867 132.202 28.04C132.122 28.0933 131.956 28.2133 131.702 28.4C131.462 28.5733 131.262 28.7133 131.102 28.82C130.956 28.9133 130.762 29.0267 130.522 29.16C130.056 29.4133 129.596 29.56 129.142 29.6C128.809 31.3067 127.956 32.86 126.582 34.26C125.222 35.66 123.796 36.36 122.302 36.36C120.809 36.36 120.062 35.68 120.062 34.32C120.062 33.2267 120.382 32.12 121.022 31C121.676 29.88 122.516 28.96 123.542 28.24C124.569 27.52 125.596 27.16 126.622 27.16C126.649 26.8267 126.749 26.5 126.922 26.18C127.096 25.8467 127.342 25.68 127.662 25.68C128.156 25.68 128.542 25.9267 128.822 26.42C129.116 26.9133 129.262 27.5467 129.262 28.32C129.262 28.5333 129.236 28.8533 129.182 29.28C129.782 29.28 130.742 28.8267 132.062 27.92C132.182 27.84 132.256 27.8 132.282 27.8ZM133.825 27.44C133.358 27.44 132.825 27.64 132.225 28.04C132.105 28.12 132.025 28.16 131.985 28.16C131.958 28.16 131.945 28.1333 131.945 28.08C131.945 28.0267 131.985 27.9733 132.065 27.92C132.985 27.2267 133.825 26.88 134.585 26.88C134.918 26.88 135.178 26.9733 135.365 27.16C135.565 27.3467 135.665 27.58 135.665 27.86C135.665 28.14 135.398 28.76 134.865 29.72C137.012 27.88 138.678 26.96 139.865 26.96C140.278 26.96 140.572 27.1067 140.745 27.4C140.932 27.68 141.025 28.04 141.025 28.48C141.025 28.9067 140.572 29.9533 139.665 31.62C138.758 33.2867 138.305 34.36 138.305 34.84C138.305 35.0533 138.365 35.2333 138.485 35.38C138.605 35.5267 138.758 35.6 138.945 35.6C140.132 35.6 141.585 34.8533 143.305 33.36C143.758 32.96 144.192 32.5333 144.605 32.08C145.032 31.6267 145.292 31.32 145.385 31.16C145.492 31 145.572 30.92 145.625 30.92C145.678 30.92 145.705 30.94 145.705 30.98C145.705 31.02 145.692 31.0667 145.665 31.12C145.185 31.76 144.458 32.56 143.485 33.52C142.525 34.4667 141.525 35.1867 140.485 35.68C139.458 36.16 138.598 36.4 137.905 36.4C137.212 36.4 136.865 36.0933 136.865 35.48C136.865 34.9333 137.092 34.2067 137.545 33.3C137.998 32.38 138.452 31.4933 138.905 30.64C139.358 29.7867 139.585 29.1467 139.585 28.72C139.585 28.0533 139.332 27.72 138.825 27.72C138.358 27.72 137.545 28.14 136.385 28.98C135.238 29.8067 134.612 30.32 134.505 30.52L131.585 35.84C131.518 35.9467 131.392 36.0133 131.205 36.04C131.032 36.08 130.845 36.1333 130.645 36.2C130.458 36.28 130.332 36.32 130.265 36.32C130.105 36.32 130.025 36.2533 130.025 36.12C130.025 36.0667 130.412 35.3867 131.185 34.08C133.265 30.5067 134.305 28.4667 134.305 27.96C134.305 27.6133 134.145 27.44 133.825 27.44Z" fill="white"/>
<line x1="59" y1="3.5" x2="141" y2="3.5" stroke="white"/>
<line x1="41" y1="51.5" x2="123" y2="51.5" stroke="white"/>
<path d="M142 0L143.35 2.55468L147 3.5L143.35 4.44532L142 7L140.65 4.44532L137 3.5L140.65 2.55468L142 0Z" fill="white"/>
<path d="M142 0L143.35 2.55468L147 3.5L143.35 4.44532L142 7L140.65 4.44532L137 3.5L140.65 2.55468L142 0Z" fill="white"/>
<path d="M142 0L143.35 2.55468L147 3.5L143.35 4.44532L142 7L140.65 4.44532L137 3.5L140.65 2.55468L142 0Z" fill="white"/>
<path d="M142 0L143.35 2.55468L147 3.5L143.35 4.44532L142 7L140.65 4.44532L137 3.5L140.65 2.55468L142 0Z" fill="white"/>
<path d="M40 48L41.3505 50.5547L45 51.5L41.3505 52.4453L40 55L38.6495 52.4453L35 51.5L38.6495 50.5547L40 48Z" fill="white"/>
<path fill-rule="evenodd" clip-rule="evenodd" d="M59.7408 3V4C51.7194 4 44.859 8.97076 42.0718 16H41C43.8375 8.40666 51.1577 3 59.7408 3Z" fill="white"/>
<path fill-rule="evenodd" clip-rule="evenodd" d="M122 52V51C130.021 51 136.882 46.0292 139.669 39H140.741C137.903 46.5933 130.583 52 122 52Z" fill="white"/>
</svg>
