<svg width="254" height="357" viewBox="0 0 254 357" fill="none" xmlns="http://www.w3.org/2000/svg">
<circle cx="127" cy="179" r="100" fill="white"/>
<path d="M92.696 118.904C92.2693 119.331 91.8427 119.8 91.416 120.312C90.648 121.251 90.136 121.72 89.88 121.72C89.368 121.72 89.112 121.421 89.112 120.824C89.112 120.227 90.0507 118.989 91.928 117.112C99.2667 109.432 107.032 105.592 115.224 105.592C118.552 105.592 121.496 106.488 124.056 108.28C126.701 109.987 128.024 112.931 128.024 117.112C128.024 123.853 123.245 135.971 113.688 153.464C104.216 170.872 95.9387 184.44 88.856 194.168C93.8053 209.016 103.619 222.285 118.296 233.976C133.059 245.667 147.736 251.512 162.328 251.512C172.312 251.512 180.504 248.44 186.904 242.296C187.587 241.613 188.227 240.803 188.824 239.864C189.507 239.011 190.019 238.328 190.36 237.816C190.787 237.389 191.171 237.176 191.512 237.176C191.853 237.176 192.024 237.432 192.024 237.944C192.024 239.395 190.829 241.528 188.44 244.344C180.76 253.389 169.667 257.912 155.16 257.912C144.579 257.912 134.083 255.437 123.672 250.488C117.869 247.757 112.493 244.259 107.544 239.992C102.595 235.811 97.944 230.392 93.592 223.736C89.24 217.08 85.784 209.613 83.224 201.336C78.4453 207.139 73.1973 212.045 67.48 216.056C61.848 220.067 56.344 222.072 50.968 222.072C45.6773 222.072 43.032 220.365 43.032 216.952C43.032 213.027 45.1227 208.035 49.304 201.976C53.5707 195.917 58.52 190.627 64.152 186.104C69.784 181.581 74.4347 179.32 78.104 179.32C81.3467 179.32 84.248 182.392 86.808 188.536C96.8773 172.664 104.6 158.371 109.976 145.656C115.352 132.941 118.04 124.28 118.04 119.672C118.04 113.528 115.821 110.456 111.384 110.456C104.557 110.456 98.328 113.272 92.696 118.904ZM81.688 196.216C80.92 193.4 79.8107 191.053 78.36 189.176C76.9093 187.213 75.3733 186.232 73.752 186.232C68.9733 186.232 63.9387 189.219 58.648 195.192C53.3573 201.08 50.712 206.627 50.712 211.832C50.712 213.197 51.1387 214.349 51.992 215.288C52.8453 216.227 54.04 216.696 55.576 216.696C60.3547 216.696 64.7493 214.904 68.76 211.32C72.7707 207.736 77.08 202.701 81.688 196.216Z" fill="#AD79DF"/>
<path d="M52.7969 331.555V332.375C52.7969 334.07 52.2695 335.457 51.2148 336.535C50.1055 337.668 48.6602 338.234 46.8789 338.234C45.0977 338.234 43.6523 337.668 42.543 336.535C41.4883 335.457 40.9609 334.07 40.9609 332.375V325.93C40.9609 324.234 41.4883 322.848 42.543 321.77C43.6523 320.637 45.0977 320.07 46.8789 320.07C48.7227 320.07 50.168 320.637 51.2148 321.77C52.2695 322.902 52.7969 324.211 52.7969 325.695L50.5703 326.75H50.4531V325.93C50.4531 324.883 50.1719 324.035 49.6094 323.387C48.9141 322.582 48.0039 322.18 46.8789 322.18C45.7539 322.18 44.8438 322.582 44.1484 323.387C43.5859 324.035 43.3047 324.883 43.3047 325.93V332.375C43.3047 333.422 43.5859 334.27 44.1484 334.918C44.8438 335.723 45.7539 336.125 46.8789 336.125C48.0039 336.125 48.9141 335.723 49.6094 334.918C50.1719 334.27 50.4531 333.5 50.4531 332.609L52.6797 331.555H52.7969ZM56.8984 333.547V329.562C56.8984 328.273 57.3828 327.152 58.3516 326.199C59.2578 325.316 60.3945 324.875 61.7617 324.875C63.1133 324.875 64.25 325.316 65.1719 326.199C66.1406 327.137 66.625 328.258 66.625 329.562V333.547C66.625 334.836 66.1406 335.957 65.1719 336.91C64.2656 337.793 63.1289 338.234 61.7617 338.234C60.4102 338.234 59.2734 337.793 58.3516 336.91C57.3828 335.973 56.8984 334.852 56.8984 333.547ZM59.2422 333.547C59.2422 334.445 59.4844 335.105 59.9688 335.527C60.4609 335.941 61.0586 336.148 61.7617 336.148C62.4648 336.148 63.0586 335.941 63.543 335.527C64.0352 335.105 64.2812 334.445 64.2812 333.547V329.562C64.2812 328.664 64.0352 328.008 63.543 327.594C63.0586 327.172 62.4648 326.961 61.7617 326.961C61.0586 326.961 60.4609 327.172 59.9688 327.594C59.4844 328.008 59.2422 328.664 59.2422 329.562V333.547ZM70.1406 338.469V329.562C70.1406 328.273 70.625 327.152 71.5938 326.199C72.5 325.316 73.6367 324.875 75.0039 324.875C76.3555 324.875 77.4922 325.316 78.4141 326.199C79.3828 327.137 79.8672 328.258 79.8672 329.562V337.414L77.6406 338.469H77.5234V329.562C77.5234 328.664 77.2773 328.008 76.7852 327.594C76.3008 327.172 75.707 326.961 75.0039 326.961C74.3008 326.961 73.7031 327.172 73.2109 327.594C72.7266 328.008 72.4844 328.664 72.4844 329.562V337.414L70.2578 338.469H70.1406ZM83.3828 338.469V329.562C83.3828 328.273 83.8672 327.152 84.8359 326.199C85.7422 325.316 86.8789 324.875 88.2461 324.875C89.5977 324.875 90.7344 325.316 91.6562 326.199C92.625 327.137 93.1094 328.258 93.1094 329.562V337.414L90.8828 338.469H90.7656V329.562C90.7656 328.664 90.5195 328.008 90.0273 327.594C89.543 327.172 88.9492 326.961 88.2461 326.961C87.543 326.961 86.9453 327.172 86.4531 327.594C85.9688 328.008 85.7266 328.664 85.7266 329.562V337.414L83.5 338.469H83.3828ZM106.352 332.809V333.547C106.352 334.836 105.867 335.957 104.898 336.91C103.992 337.793 102.855 338.234 101.488 338.234C100.137 338.234 99 337.793 98.0781 336.91C97.1094 335.973 96.625 334.852 96.625 333.547V329.562C96.625 328.273 97.1094 327.152 98.0781 326.199C98.9844 325.316 100.121 324.875 101.488 324.875C102.816 324.875 103.953 325.316 104.898 326.199C105.867 327.105 106.352 328.113 106.352 329.223V329.246L99.2031 334.848C99.3203 335.113 99.4844 335.336 99.6953 335.516C100.188 335.938 100.785 336.148 101.488 336.148C102.191 336.148 102.785 335.938 103.27 335.516C103.762 335.094 104.008 334.543 104.008 333.863L106.234 332.809H106.352ZM98.9688 332.48L103.867 328.508C103.742 328.125 103.547 327.82 103.281 327.594C102.789 327.172 102.191 326.961 101.488 326.961C100.785 326.961 100.188 327.172 99.6953 327.594C99.2109 328.008 98.9688 328.664 98.9688 329.562V332.48ZM119.594 332.809V333.547C119.594 334.836 119.109 335.957 118.141 336.91C117.234 337.793 116.098 338.234 114.73 338.234C113.379 338.234 112.242 337.793 111.32 336.91C110.352 335.973 109.867 334.852 109.867 333.547V329.562C109.867 328.266 110.352 327.145 111.32 326.199C112.227 325.316 113.363 324.875 114.73 324.875C116.066 324.875 117.203 325.316 118.141 326.199C119.109 327.113 119.594 328.121 119.594 329.223V329.246L117.367 330.301H117.25V329.562C117.25 328.664 117.004 328.008 116.512 327.594C116.027 327.172 115.434 326.961 114.73 326.961C114.027 326.961 113.43 327.172 112.938 327.594C112.453 328.008 112.211 328.664 112.211 329.562V333.547C112.211 334.445 112.453 335.105 112.938 335.527C113.43 335.941 114.027 336.148 114.73 336.148C115.434 336.148 116.027 335.938 116.512 335.516C117.004 335.094 117.25 334.543 117.25 333.863L119.477 332.809H119.594ZM124.656 338.469V327.242H121.645V327.125L122.594 325.109H124.656V320.891L126.883 319.836H127V325.109H130.012V325.227L129.062 327.242H127V337.414L124.773 338.469H124.656ZM144.367 329.914H147.707C148.73 329.914 149.641 329.512 150.438 328.707C151 328.137 151.281 327.289 151.281 326.164C151.281 325.117 151 324.27 150.438 323.621C149.742 322.816 148.832 322.414 147.707 322.414H144.367V329.914ZM142.023 338.469V320.891L143.266 320.305H147.707C149.488 320.305 150.934 320.871 152.043 322.004C153.098 323.082 153.625 324.469 153.625 326.164C153.625 327.867 153.098 329.254 152.043 330.324C150.926 331.457 149.48 332.023 147.707 332.023H144.367V337.414L142.141 338.469H142.023ZM166.281 332.809V333.547C166.281 334.836 165.797 335.957 164.828 336.91C163.922 337.793 162.785 338.234 161.418 338.234C160.066 338.234 158.93 337.793 158.008 336.91C157.039 335.973 156.555 334.852 156.555 333.547V329.562C156.555 328.273 157.039 327.152 158.008 326.199C158.914 325.316 160.051 324.875 161.418 324.875C162.746 324.875 163.883 325.316 164.828 326.199C165.797 327.105 166.281 328.113 166.281 329.223V329.246L159.133 334.848C159.25 335.113 159.414 335.336 159.625 335.516C160.117 335.938 160.715 336.148 161.418 336.148C162.121 336.148 162.715 335.938 163.199 335.516C163.691 335.094 163.938 334.543 163.938 333.863L166.164 332.809H166.281ZM158.898 332.48L163.797 328.508C163.672 328.125 163.477 327.82 163.211 327.594C162.719 327.172 162.121 326.961 161.418 326.961C160.715 326.961 160.117 327.172 159.625 327.594C159.141 328.008 158.898 328.664 158.898 329.562V332.48ZM169.797 333.547V329.562C169.797 328.273 170.281 327.152 171.25 326.199C172.156 325.316 173.293 324.875 174.66 324.875C176.012 324.875 177.148 325.316 178.07 326.199C179.039 327.137 179.523 328.258 179.523 329.562V333.547C179.523 334.836 179.039 335.957 178.07 336.91C177.164 337.793 176.027 338.234 174.66 338.234C173.309 338.234 172.172 337.793 171.25 336.91C170.281 335.973 169.797 334.852 169.797 333.547ZM172.141 333.547C172.141 334.445 172.383 335.105 172.867 335.527C173.359 335.941 173.957 336.148 174.66 336.148C175.363 336.148 175.957 335.941 176.441 335.527C176.934 335.105 177.18 334.445 177.18 333.547V329.562C177.18 328.664 176.934 328.008 176.441 327.594C175.957 327.172 175.363 326.961 174.66 326.961C173.957 326.961 173.359 327.172 172.867 327.594C172.383 328.008 172.141 328.664 172.141 329.562V333.547ZM191.008 329.562C191.008 328.664 190.762 328.008 190.27 327.594C189.785 327.172 189.191 326.961 188.488 326.961C187.785 326.961 187.188 327.172 186.695 327.594C186.211 328.008 185.969 328.664 185.969 329.562V333.547C185.969 334.445 186.211 335.105 186.695 335.527C187.188 335.941 187.785 336.148 188.488 336.148C189.191 336.148 189.785 335.941 190.27 335.527C190.762 335.105 191.008 334.445 191.008 333.547V329.562ZM193.352 329.562V333.547C193.352 334.836 192.867 335.957 191.898 336.91C190.992 337.793 189.855 338.234 188.488 338.234C187.457 338.234 186.617 337.902 185.969 337.238V342.219L183.742 343.273H183.625V329.562C183.625 328.273 184.109 327.152 185.078 326.199C185.984 325.316 187.121 324.875 188.488 324.875C189.84 324.875 190.977 325.316 191.898 326.199C192.867 327.137 193.352 328.258 193.352 329.562ZM197.453 338.469V320.891L199.68 319.836H199.797V337.414L197.57 338.469H197.453ZM213.625 332.809V333.547C213.625 334.836 213.141 335.957 212.172 336.91C211.266 337.793 210.129 338.234 208.762 338.234C207.41 338.234 206.273 337.793 205.352 336.91C204.383 335.973 203.898 334.852 203.898 333.547V329.562C203.898 328.273 204.383 327.152 205.352 326.199C206.258 325.316 207.395 324.875 208.762 324.875C210.09 324.875 211.227 325.316 212.172 326.199C213.141 327.105 213.625 328.113 213.625 329.223V329.246L206.477 334.848C206.594 335.113 206.758 335.336 206.969 335.516C207.461 335.938 208.059 336.148 208.762 336.148C209.465 336.148 210.059 335.938 210.543 335.516C211.035 335.094 211.281 334.543 211.281 333.863L213.508 332.809H213.625ZM206.242 332.48L211.141 328.508C211.016 328.125 210.82 327.82 210.555 327.594C210.062 327.172 209.465 326.961 208.762 326.961C208.059 326.961 207.461 327.172 206.969 327.594C206.484 328.008 206.242 328.664 206.242 329.562V332.48Z" fill="white"/>
<path fill-rule="evenodd" clip-rule="evenodd" d="M15 179.5C15 117.92 64.9202 68 126.5 68V71C66.5771 71 18 119.577 18 179.5C18 194.776 21.1571 209.315 26.8543 222.5H23.5936C18.0579 209.268 15 194.741 15 179.5Z" fill="white"/>
<line x1="123" y1="69.5" x2="151" y2="69.5" stroke="white" stroke-width="3"/>
<path d="M153 63L155.161 67.7444L161 69.5L155.161 71.2556L153 76L150.839 71.2556L145 69.5L150.839 67.7444L153 63Z" fill="white"/>
<path d="M102 283L104.161 287.744L110 289.5L104.161 291.256L102 296L99.8393 291.256L94 289.5L99.8393 287.744L102 283Z" fill="white"/>
<path fill-rule="evenodd" clip-rule="evenodd" d="M226.36 137C231.922 150.052 235 164.417 235 179.5C235 238.252 188.303 286.097 130 287.945V290.946C189.96 289.097 238 239.909 238 179.5C238 164.451 235.019 150.098 229.614 137H226.36Z" fill="white"/>
<line x1="130" y1="289.5" x2="102" y2="289.5" stroke="white" stroke-width="3"/>
<path fill-rule="evenodd" clip-rule="evenodd" d="M125.5 63C60.0543 63 7 116.054 7 181.5C7 209.265 16.5491 234.8 32.5423 255H28.7447C13.2176 234.592 4 209.122 4 181.5C4 114.397 58.3974 60 125.5 60C126.001 60 126.501 60.003 127 60.0091V63.0093C126.501 63.0031 126.001 63 125.5 63Z" fill="white"/>
<path fill-rule="evenodd" clip-rule="evenodd" d="M127 297.991C127.499 297.997 127.999 298 128.5 298C193.946 298 247 244.946 247 179.5C247 151.735 237.451 126.2 221.458 106L225.255 106C240.782 126.408 250 151.878 250 179.5C250 246.603 195.603 301 128.5 301C127.999 301 127.499 300.997 127 300.991L127 297.991Z" fill="white"/>
</svg>
