<svg width="177" height="55" viewBox="0 0 177 55" fill="none" xmlns="http://www.w3.org/2000/svg">
<path d="M61.1074 30.3906C61.1074 31.7188 60.6712 32.8483 59.7988 33.7793C58.9069 34.7233 57.7025 35.1953 56.1855 35.1953C54.6686 35.1953 53.4642 34.7233 52.5723 33.7793C51.6934 32.8483 51.2539 31.7578 51.2539 30.5078L53.1094 29.6289H53.207V30.4297C53.207 31.224 53.4414 31.8913 53.9102 32.4316C54.4896 33.1022 55.248 33.4375 56.1855 33.4375C57.1165 33.4375 57.875 33.1022 58.4609 32.4316C58.9232 31.9043 59.1543 31.2305 59.1543 30.4102C59.1543 29.6354 58.9655 29.0267 58.5879 28.584C58.0671 27.972 57.2663 27.666 56.1855 27.666C55.0007 27.666 53.9753 27.2754 53.1094 26.4941C52.4583 25.9082 52.1328 25.0586 52.1328 23.9453C52.1328 22.6367 52.5365 21.6536 53.3438 20.9961C54.112 20.3711 55.0592 20.0586 56.1855 20.0586C57.3118 20.0586 58.2591 20.3711 59.0273 20.9961C59.8346 21.6536 60.2383 22.5553 60.2383 23.7012L58.3828 24.5801H58.2852V23.7988C58.2852 23.0566 58.0736 22.5033 57.6504 22.1387C57.2402 21.7806 56.752 21.6016 56.1855 21.6016C55.554 21.6016 55.0462 21.8001 54.6621 22.1973C54.278 22.5944 54.0859 23.1283 54.0859 23.7988C54.0859 24.4434 54.2324 24.9284 54.5254 25.2539C54.916 25.6901 55.4694 25.9082 56.1855 25.9082C57.7611 25.9082 58.9655 26.2793 59.7988 27.0215C60.6712 27.7962 61.1074 28.9193 61.1074 30.3906ZM72.25 30.6738V31.2891C72.25 32.3633 71.8464 33.2975 71.0391 34.0918C70.2839 34.8275 69.3366 35.1953 68.1973 35.1953C67.071 35.1953 66.1237 34.8275 65.3555 34.0918C64.5482 33.3105 64.1445 32.3763 64.1445 31.2891V27.9688C64.1445 26.8945 64.5482 25.9603 65.3555 25.166C66.1107 24.4303 67.0579 24.0625 68.1973 24.0625C69.304 24.0625 70.2513 24.4303 71.0391 25.166C71.8464 25.9212 72.25 26.7611 72.25 27.6855V27.7051L66.293 32.373C66.3906 32.5944 66.5273 32.7799 66.7031 32.9297C67.1133 33.2812 67.6113 33.457 68.1973 33.457C68.7832 33.457 69.278 33.2812 69.6816 32.9297C70.0918 32.5781 70.2969 32.1191 70.2969 31.5527L72.1523 30.6738H72.25ZM66.0977 30.4004L70.1797 27.0898C70.0755 26.7708 69.9128 26.5169 69.6914 26.3281C69.2812 25.9766 68.7832 25.8008 68.1973 25.8008C67.6113 25.8008 67.1133 25.9766 66.7031 26.3281C66.2995 26.6732 66.0977 27.2201 66.0977 27.9688V30.4004ZM76.4688 35.3906V26.0352H73.959V25.9375L74.75 24.2578H76.4688V20.7422L78.3242 19.8633H78.4219V24.2578H80.9316V24.3555L80.1406 26.0352H78.4219V34.5117L76.5664 35.3906H76.4688ZM83.9297 35.3906V26.0352H81.4199V25.9375L82.2109 24.2578H83.9297V20.7422L85.7852 19.8633H85.8828V24.2578H88.3926V24.3555L87.6016 26.0352H85.8828V34.5117L84.0273 35.3906H83.9297ZM90.7363 22.0996C90.5085 21.8652 90.3945 21.5853 90.3945 21.2598C90.3945 20.9277 90.5085 20.6445 90.7363 20.4102C90.9642 20.1758 91.2409 20.0586 91.5664 20.0586C91.8919 20.0586 92.1686 20.1758 92.3965 20.4102C92.6243 20.6445 92.7383 20.9277 92.7383 21.2598C92.7383 21.5853 92.6243 21.8652 92.3965 22.0996C92.1686 22.334 91.8919 22.4512 91.5664 22.4512C91.2409 22.4512 90.9642 22.334 90.7363 22.0996ZM90.5898 35.3906V24.7461L92.4453 23.8672H92.543V34.5117L90.6875 35.3906H90.5898ZM95.9609 35.3906V27.9688C95.9609 26.8945 96.3646 25.9603 97.1719 25.166C97.9271 24.4303 98.8743 24.0625 100.014 24.0625C101.14 24.0625 102.087 24.4303 102.855 25.166C103.663 25.9473 104.066 26.8815 104.066 27.9688V34.5117L102.211 35.3906H102.113V27.9688C102.113 27.2201 101.908 26.6732 101.498 26.3281C101.094 25.9766 100.6 25.8008 100.014 25.8008C99.4277 25.8008 98.9297 25.9766 98.5195 26.3281C98.1159 26.6732 97.9141 27.2201 97.9141 27.9688V34.5117L96.0586 35.3906H95.9609ZM108.949 31.2891C108.949 32.0378 109.151 32.5879 109.555 32.9395C109.965 33.2845 110.463 33.457 111.049 33.457C111.635 33.457 112.13 33.2845 112.533 32.9395C112.943 32.5879 113.148 32.0378 113.148 31.2891V27.9688C113.148 27.2201 112.943 26.6732 112.533 26.3281C112.13 25.9766 111.635 25.8008 111.049 25.8008C110.463 25.8008 109.965 25.9766 109.555 26.3281C109.151 26.6732 108.949 27.2201 108.949 27.9688V31.2891ZM106.996 31.2891V27.9688C106.996 26.8945 107.4 25.9603 108.207 25.166C108.962 24.4303 109.91 24.0625 111.049 24.0625C112.188 24.0625 113.135 24.4303 113.891 25.166C114.698 25.9538 115.102 26.888 115.102 27.9688V35.293C115.102 36.3672 114.698 37.3014 113.891 38.0957C113.135 38.8314 112.188 39.1992 111.049 39.1992H108.041V39.1016L108.822 37.4609H111.049C111.635 37.4609 112.13 37.2852 112.533 36.9336C112.943 36.5885 113.148 36.0417 113.148 35.293V34.3652C112.654 34.9186 111.954 35.1953 111.049 35.1953C109.923 35.1953 108.975 34.8275 108.207 34.0918C107.4 33.3105 106.996 32.3763 106.996 31.2891ZM118.031 31.5527L119.887 30.6738H119.984V31.4551C119.984 32.1842 120.196 32.7376 120.619 33.1152C121.023 33.4733 121.511 33.6523 122.084 33.6523C122.748 33.6523 123.266 33.4408 123.637 33.0176C124.027 32.5749 124.223 32.0931 124.223 31.5723C124.223 31.0124 124.014 30.5697 123.598 30.2441C123.24 29.9642 122.732 29.8242 122.074 29.8242C120.915 29.8242 120.001 29.5703 119.33 29.0625C118.738 28.6198 118.441 27.9329 118.441 27.002C118.441 26.097 118.855 25.3483 119.682 24.7559C120.326 24.2936 121.127 24.0625 122.084 24.0625C123.002 24.0625 123.799 24.349 124.477 24.9219C124.997 25.3711 125.32 25.8919 125.443 26.4844L123.588 27.3633H123.49V27.0801C123.49 26.7415 123.393 26.4518 123.197 26.2109C122.885 25.8073 122.439 25.6055 121.859 25.6055C121.397 25.6055 121.02 25.752 120.727 26.0449C120.44 26.3314 120.297 26.6504 120.297 27.002C120.297 27.4186 120.473 27.7507 120.824 27.998C121.02 28.1348 121.436 28.2031 122.074 28.2031C123.396 28.2031 124.389 28.5059 125.053 29.1113C125.775 29.7689 126.137 30.625 126.137 31.6797C126.137 32.526 125.762 33.3333 125.014 34.1016C124.304 34.8307 123.327 35.1953 122.084 35.1953C120.958 35.1953 120.01 34.8828 119.242 34.2578C118.435 33.6003 118.031 32.6986 118.031 31.5527Z" fill="white"/>
<line x1="57" y1="3.5" x2="139" y2="3.5" stroke="white"/>
<line x1="39" y1="51.5" x2="121" y2="51.5" stroke="white"/>
<path d="M140 0L141.35 2.55468L145 3.5L141.35 4.44532L140 7L138.65 4.44532L135 3.5L138.65 2.55468L140 0Z" fill="white"/>
<path d="M140 0L141.35 2.55468L145 3.5L141.35 4.44532L140 7L138.65 4.44532L135 3.5L138.65 2.55468L140 0Z" fill="white"/>
<path d="M140 0L141.35 2.55468L145 3.5L141.35 4.44532L140 7L138.65 4.44532L135 3.5L138.65 2.55468L140 0Z" fill="white"/>
<path d="M140 0L141.35 2.55468L145 3.5L141.35 4.44532L140 7L138.65 4.44532L135 3.5L138.65 2.55468L140 0Z" fill="white"/>
<path d="M38 48L39.3505 50.5547L43 51.5L39.3505 52.4453L38 55L36.6495 52.4453L33 51.5L36.6495 50.5547L38 48Z" fill="white"/>
<path fill-rule="evenodd" clip-rule="evenodd" d="M57.7408 3V4C49.7194 4 42.859 8.97076 40.0718 16H39C41.8375 8.40666 49.1577 3 57.7408 3Z" fill="white"/>
<path fill-rule="evenodd" clip-rule="evenodd" d="M120 52V51C128.021 51 134.882 46.0292 137.669 39H138.741C135.903 46.5933 128.583 52 120 52Z" fill="white"/>
</svg>
