<svg width="177" height="58" viewBox="0 0 177 58" fill="none" xmlns="http://www.w3.org/2000/svg">
<path d="M47.7689 20.36C47.7022 20.4267 47.6356 20.5 47.5689 20.58C47.4489 20.7267 47.3689 20.8 47.3289 20.8C47.2489 20.8 47.2089 20.7533 47.2089 20.66C47.2089 20.5667 47.3556 20.3733 47.6489 20.08C48.7956 18.88 50.0089 18.28 51.2889 18.28C51.8089 18.28 52.2689 18.42 52.6689 18.7C53.0822 18.9667 53.2889 19.4267 53.2889 20.08C53.2889 21.1333 52.5422 23.0267 51.0489 25.76C49.5689 28.48 48.2756 30.6 47.1689 32.12C47.9422 34.44 49.4756 36.5133 51.7689 38.34C54.0756 40.1667 56.3689 41.08 58.6489 41.08C60.2089 41.08 61.4889 40.6 62.4889 39.64C62.5956 39.5333 62.6956 39.4067 62.7889 39.26C62.8956 39.1267 62.9756 39.02 63.0289 38.94C63.0956 38.8733 63.1556 38.84 63.2089 38.84C63.2622 38.84 63.2889 38.88 63.2889 38.96C63.2889 39.1867 63.1022 39.52 62.7289 39.96C61.5289 41.3733 59.7956 42.08 57.5289 42.08C55.8756 42.08 54.2356 41.6933 52.6089 40.92C51.7022 40.4933 50.8622 39.9467 50.0889 39.28C49.3156 38.6267 48.5889 37.78 47.9089 36.74C47.2289 35.7 46.6889 34.5333 46.2889 33.24C45.5422 34.1467 44.7222 34.9133 43.8289 35.54C42.9489 36.1667 42.0889 36.48 41.2489 36.48C40.4222 36.48 40.0089 36.2133 40.0089 35.68C40.0089 35.0667 40.3356 34.2867 40.9889 33.34C41.6556 32.3933 42.4289 31.5667 43.3089 30.86C44.1889 30.1533 44.9156 29.8 45.4889 29.8C45.9956 29.8 46.4489 30.28 46.8489 31.24C48.4222 28.76 49.6289 26.5267 50.4689 24.54C51.3089 22.5533 51.7289 21.2 51.7289 20.48C51.7289 19.52 51.3822 19.04 50.6889 19.04C49.6222 19.04 48.6489 19.48 47.7689 20.36ZM46.0489 32.44C45.9289 32 45.7556 31.6333 45.5289 31.34C45.3022 31.0333 45.0622 30.88 44.8089 30.88C44.0622 30.88 43.2756 31.3467 42.4489 32.28C41.6222 33.2 41.2089 34.0667 41.2089 34.88C41.2089 35.0933 41.2756 35.2733 41.4089 35.42C41.5422 35.5667 41.7289 35.64 41.9689 35.64C42.7156 35.64 43.4022 35.36 44.0289 34.8C44.6556 34.24 45.3289 33.4533 46.0489 32.44ZM56.1605 28.04C56.0405 28.12 55.9605 28.16 55.9205 28.16C55.8938 28.16 55.8805 28.1333 55.8805 28.08C55.8805 28.0267 55.9205 27.9733 56.0005 27.92C56.8538 27.3333 57.5871 27.04 58.2005 27.04C59.1071 27.04 59.5605 27.4533 59.5605 28.28C59.5605 28.5733 59.3338 29.12 58.8805 29.92C58.4271 30.7067 57.9738 31.5333 57.5205 32.4C57.0671 33.2667 56.8405 33.9467 56.8405 34.44C56.8405 35.1333 57.3071 35.48 58.2405 35.48C58.6938 35.48 59.2871 35.2667 60.0205 34.84C60.7671 34.4133 61.4205 33.9667 61.9805 33.5C62.5405 33.0333 63.0338 32.5667 63.4605 32.1C63.8871 31.6333 64.1471 31.32 64.2405 31.16C64.3471 31 64.4271 30.92 64.4805 30.92C64.5338 30.92 64.5605 30.94 64.5605 30.98C64.5605 31.02 64.5471 31.0667 64.5205 31.12C63.8671 32 63.1471 32.7867 62.3605 33.48C61.5071 34.2933 60.5738 34.9467 59.5605 35.44C58.5471 35.92 57.7405 36.16 57.1405 36.16C56.5405 36.16 56.0738 36.0267 55.7405 35.76C55.4071 35.4933 55.2405 35.0933 55.2405 34.56C55.2405 34.0267 55.4871 33.3067 55.9805 32.4C56.4738 31.4933 56.9671 30.6533 57.4605 29.88C57.9538 29.0933 58.2005 28.5733 58.2005 28.32C58.2005 28.0533 58.1405 27.8467 58.0205 27.7C57.9138 27.5533 57.7738 27.48 57.6005 27.48C57.2005 27.48 56.7205 27.6667 56.1605 28.04ZM60.6405 22.68C60.6405 22.3867 60.7738 22.08 61.0405 21.76C61.2805 21.44 61.5205 21.28 61.7605 21.28C62.0005 21.28 62.1805 21.3533 62.3005 21.5C62.4205 21.6333 62.4805 21.8267 62.4805 22.08C62.4805 22.3333 62.3605 22.62 62.1205 22.94C61.8805 23.2467 61.6005 23.4 61.2805 23.4C60.8538 23.4 60.6405 23.16 60.6405 22.68ZM71.8409 29.56C71.4809 28.92 71.0343 28.3733 70.5009 27.92C69.9676 27.4667 69.3809 27.24 68.7409 27.24C68.1143 27.24 67.4076 27.5933 66.6209 28.3C65.8476 28.9933 65.1676 29.8933 64.5809 31C64.0076 32.1067 63.7209 33.16 63.7209 34.16C63.7209 34.4667 63.8343 34.74 64.0609 34.98C64.2876 35.2067 64.5609 35.32 64.8809 35.32C66.3209 35.32 68.1743 34.1467 70.4409 31.8C70.7476 31.4933 71.2143 30.7467 71.8409 29.56ZM57.7809 54.36C56.8076 55.2667 55.7009 55.9867 54.4609 56.52C53.2209 57.0533 52.0209 57.32 50.8609 57.32C49.7009 57.32 48.6676 57.1067 47.7609 56.68C46.8543 56.2667 46.0876 55.6267 45.4609 54.76C44.8343 53.8933 44.5209 52.8867 44.5209 51.74C44.5209 50.5933 44.7543 49.4867 45.2209 48.42C45.6876 47.3667 46.3209 46.4267 47.1209 45.6C47.9076 44.7733 48.8276 43.9933 49.8809 43.26C50.9209 42.54 52.0143 41.9 53.1609 41.34C54.3076 40.7933 55.4676 40.2867 56.6409 39.82C58.4009 39.1267 60.4943 38.4133 62.9209 37.68C62.9876 37.6267 63.1076 37.6 63.2809 37.6C63.4676 37.6 63.5609 37.6667 63.5609 37.8C63.5609 37.9333 63.4209 38.0467 63.1409 38.14C62.8609 38.2467 62.2609 38.4333 61.3409 38.7C60.4343 38.98 59.6476 39.2267 58.9809 39.44C58.3009 39.6667 57.3276 40.02 56.0609 40.5C54.7943 40.98 53.7676 41.4267 52.9809 41.84C52.1943 42.2533 51.3009 42.7933 50.3009 43.46C49.3009 44.14 48.5209 44.8267 47.9609 45.52C47.3876 46.2133 46.9009 47.0333 46.5009 47.98C46.0876 48.9267 45.8809 49.92 45.8809 50.96C45.8809 52.5333 46.4543 53.86 47.6009 54.94C48.7343 56.02 50.0676 56.56 51.6009 56.56C53.1343 56.56 54.7209 55.8267 56.3609 54.36C58.0009 52.8933 59.4676 51 60.7609 48.68C63.8009 43.2533 66.9343 37.84 70.1609 32.44C69.2409 33.4267 68.1943 34.2667 67.0209 34.96C65.8476 35.6533 64.7743 36 63.8009 36C62.7343 36 62.2009 35.3067 62.2009 33.92C62.2009 33 62.5409 31.9733 63.2209 30.84C63.9009 29.7067 64.7609 28.74 65.8009 27.94C66.8409 27.1267 67.8143 26.72 68.7209 26.72C70.0809 26.72 71.1609 27.6 71.9609 29.36L72.0809 29.12C72.2276 28.8533 72.4143 28.6933 72.6409 28.64C72.7476 28.6133 72.8276 28.58 72.8809 28.54C72.9343 28.5 72.9876 28.48 73.0409 28.48C73.0676 28.48 73.0809 28.52 73.0809 28.6C73.0809 28.68 73.0543 28.7467 73.0009 28.8C72.9476 28.8533 72.6943 29.2667 72.2409 30.04C72.3209 30.2 72.3609 30.3267 72.3609 30.42C72.3609 30.5133 72.3343 30.56 72.2809 30.56L72.1209 30.24L62.2809 48.52C61.0676 50.7467 59.5676 52.6933 57.7809 54.36ZM81.4025 23.04C82.4958 22.1333 83.4492 21.3133 84.2625 20.58C85.0892 19.8333 85.9625 18.96 86.8825 17.96C87.8158 16.96 88.5825 16.02 89.1825 15.14C89.7825 14.2467 90.2825 13.28 90.6825 12.24C91.0825 11.1867 91.2825 10.1733 91.2825 9.2C91.2825 8.97333 91.2358 8.78666 91.1425 8.64C91.0492 8.48 90.9225 8.4 90.7625 8.4C90.1625 8.4 89.2692 9.26 88.0825 10.98C86.8958 12.6867 85.6425 14.8133 84.3225 17.36L81.4025 23.04ZM79.1225 25.24C76.4025 27.2 75.0358 28.1733 75.0225 28.16C74.9825 28.16 74.9625 28.1333 74.9625 28.08C74.9625 28.0267 75.0025 27.9733 75.0825 27.92C77.4958 26.1733 78.9358 25.1067 79.4025 24.72L82.8825 18.12C83.0025 17.8933 83.2625 17.3933 83.6625 16.62C84.0625 15.8467 84.3425 15.3133 84.5025 15.02C84.6758 14.7267 84.9425 14.2533 85.3025 13.6C85.6758 12.9467 85.9958 12.4467 86.2625 12.1C86.5292 11.74 86.8558 11.3133 87.2425 10.82C87.9358 9.94 88.7625 9.16 89.7225 8.48C90.6425 7.78667 91.4692 7.44 92.2025 7.44C92.4425 7.44 92.6158 7.54 92.7225 7.74C92.8292 7.94 92.8825 8.13333 92.8825 8.32C92.8825 10.5333 91.8892 12.8733 89.9025 15.34C89.2358 16.1667 88.6025 16.9 88.0025 17.54C87.4158 18.18 86.6692 18.9067 85.7625 19.72C84.6425 20.7333 83.0825 22.0533 81.0825 23.68L78.2425 29.4C78.8025 28.84 79.4225 28.3 80.1025 27.78C80.7958 27.26 81.3292 26.8867 81.7025 26.66C82.6092 26.1133 83.3892 25.84 84.0425 25.84C84.4692 25.84 84.8158 25.9933 85.0825 26.3C85.3492 26.6067 85.4825 27.0267 85.4825 27.56C85.4825 28.08 85.2558 28.78 84.8025 29.66C84.3492 30.5267 83.8958 31.4267 83.4425 32.36C82.9892 33.2933 82.7625 34.1067 82.7625 34.8C82.7625 35.2533 82.9625 35.48 83.3625 35.48C83.8025 35.48 84.4225 35.24 85.2225 34.76C86.0358 34.2667 86.8292 33.68 87.6025 33C88.3892 32.32 88.9892 31.6667 89.4025 31.04C89.4558 30.96 89.5092 30.92 89.5625 30.92C89.6158 30.92 89.6425 30.94 89.6425 30.98C89.6425 31.02 89.6292 31.0667 89.6025 31.12C88.8825 32.08 88.1625 32.8733 87.4425 33.5C86.7358 34.1267 85.8892 34.7267 84.9025 35.3C83.9292 35.8733 83.1225 36.16 82.4825 36.16C81.5758 36.16 81.1225 35.6667 81.1225 34.68C81.1225 34.04 81.3692 33.2267 81.8625 32.24C82.3558 31.2533 82.8492 30.32 83.3425 29.44C83.8358 28.56 84.0825 27.9667 84.0825 27.66C84.0825 27.3533 84.0025 27.1067 83.8425 26.92C83.6825 26.7333 83.4692 26.64 83.2025 26.64C82.4958 26.64 81.5358 27.1733 80.3225 28.24C79.1092 29.2933 78.2692 30.1733 77.8025 30.88C76.3225 33.08 75.4692 34.7467 75.2425 35.88C75.2158 35.9867 75.0825 36.04 74.8425 36.04C74.6025 36.04 74.4025 36.06 74.2425 36.1C74.0825 36.14 73.9892 36.16 73.9625 36.16C73.7225 36.16 73.6025 36.0667 73.6025 35.88C73.6025 35.7467 73.8892 35.1133 74.4625 33.98C75.0358 32.8467 75.5492 31.8667 76.0025 31.04C77.6158 27.96 78.6558 26.0267 79.1225 25.24ZM88.4009 28.16C88.3743 28.16 88.3609 28.1333 88.3609 28.08C88.3609 28.0267 88.3943 27.9733 88.4609 27.92C88.6609 27.7867 88.8609 27.6467 89.0609 27.5C89.2743 27.3533 90.1076 27.16 91.5609 26.92L94.8009 20.92C94.9609 20.5867 95.1876 20.2867 95.4809 20.02C95.7476 19.74 96.0143 19.6 96.2809 19.6C96.2943 19.6 96.3143 19.6 96.3409 19.6C96.5676 19.6 96.6809 19.6533 96.6809 19.76C96.6809 19.8667 96.3476 20.4867 95.6809 21.62C95.0143 22.7533 94.0943 24.4533 92.9209 26.72L96.6809 26.12C96.7609 26.12 96.8009 26.1333 96.8009 26.16C96.8009 26.24 96.7009 26.34 96.5009 26.46C96.3143 26.58 96.1676 26.64 96.0609 26.64C95.9543 26.64 94.8276 26.8133 92.6809 27.16L90.7609 31.16C90.0409 32.76 89.6809 33.8 89.6809 34.28C89.6809 34.76 89.8209 35.1533 90.1009 35.46C90.3809 35.7667 90.7343 35.92 91.1609 35.92C92.2009 35.92 93.0543 35.7333 93.7209 35.36C94.4009 34.9867 95.1076 34.4733 95.8409 33.82C96.5876 33.1667 97.1876 32.5867 97.6409 32.08C98.1076 31.56 98.3809 31.24 98.4609 31.12C98.5543 30.9867 98.6276 30.92 98.6809 30.92C98.7343 30.92 98.7609 30.94 98.7609 30.98C98.7609 31.02 98.7476 31.0667 98.7209 31.12C98.0809 31.96 97.4143 32.7133 96.7209 33.38C96.0276 34.0333 95.4209 34.5533 94.9009 34.94C94.3943 35.3267 93.7543 35.66 92.9809 35.94C92.2209 36.22 91.4476 36.36 90.6609 36.36C89.8876 36.36 89.2743 36.1867 88.8209 35.84C88.3809 35.4933 88.1609 34.9467 88.1609 34.2C88.1609 33.4533 88.5476 32.4 89.3209 31.04L91.2409 27.48C89.5609 27.8133 88.6743 28.0133 88.5809 28.08C88.5009 28.1333 88.4409 28.16 88.4009 28.16ZM102.738 36V21.7422L104.594 20.8633H104.691V34.2227H111.381V34.3203L110.59 36H102.738ZM112.553 23.0996C112.325 22.8652 112.211 22.5853 112.211 22.2598C112.211 21.9277 112.325 21.6445 112.553 21.4102C112.781 21.1758 113.057 21.0586 113.383 21.0586C113.708 21.0586 113.985 21.1758 114.213 21.4102C114.441 21.6445 114.555 21.9277 114.555 22.2598C114.555 22.5853 114.441 22.8652 114.213 23.0996C113.985 23.334 113.708 23.4512 113.383 23.4512C113.057 23.4512 112.781 23.334 112.553 23.0996ZM112.406 36.3906V25.7461L114.262 24.8672H114.359V35.5117L112.504 36.3906H112.406ZM117.777 36.3906V28.9688C117.777 27.8945 118.181 26.9603 118.988 26.166C119.743 25.4303 120.691 25.0625 121.83 25.0625C122.956 25.0625 123.904 25.4303 124.672 26.166C125.479 26.9473 125.883 27.8815 125.883 28.9688V35.5117L124.027 36.3906H123.93V28.9688C123.93 28.2201 123.725 27.6732 123.314 27.3281C122.911 26.9766 122.416 26.8008 121.83 26.8008C121.244 26.8008 120.746 26.9766 120.336 27.3281C119.932 27.6732 119.73 28.2201 119.73 28.9688V35.5117L117.875 36.3906H117.777ZM129.301 36.3906V21.7422L131.156 20.8633H131.254V28.998L135.336 24.8672H135.434L137.152 25.6777L133.91 28.6562C134.835 28.7799 135.596 29.0827 136.195 29.5645C137.003 30.2285 137.406 31.1628 137.406 32.3672V35.5117L135.551 36.3906H135.453V32.3672C135.453 31.6185 135.248 31.0716 134.838 30.7266C134.434 30.375 133.939 30.1992 133.354 30.1992C132.768 30.1992 132.27 30.375 131.859 30.7266C131.456 31.0781 131.254 31.625 131.254 32.3672V35.5117L129.398 36.3906H129.301Z" fill="white"/>
<line x1="57" y1="3.5" x2="139" y2="3.5" stroke="white"/>
<line x1="39" y1="51.5" x2="121" y2="51.5" stroke="white"/>
<path d="M140 0L141.35 2.55468L145 3.5L141.35 4.44532L140 7L138.65 4.44532L135 3.5L138.65 2.55468L140 0Z" fill="white"/>
<path d="M140 0L141.35 2.55468L145 3.5L141.35 4.44532L140 7L138.65 4.44532L135 3.5L138.65 2.55468L140 0Z" fill="white"/>
<path d="M140 0L141.35 2.55468L145 3.5L141.35 4.44532L140 7L138.65 4.44532L135 3.5L138.65 2.55468L140 0Z" fill="white"/>
<path d="M140 0L141.35 2.55468L145 3.5L141.35 4.44532L140 7L138.65 4.44532L135 3.5L138.65 2.55468L140 0Z" fill="white"/>
<path d="M38 48L39.3505 50.5547L43 51.5L39.3505 52.4453L38 55L36.6495 52.4453L33 51.5L36.6495 50.5547L38 48Z" fill="white"/>
<path fill-rule="evenodd" clip-rule="evenodd" d="M57.7408 3V4C49.7194 4 42.859 8.97076 40.0718 16H39C41.8375 8.40666 49.1577 3 57.7408 3Z" fill="white"/>
<path fill-rule="evenodd" clip-rule="evenodd" d="M120 52V51C128.021 51 134.882 46.0292 137.669 39H138.741C135.903 46.5933 128.583 52 120 52Z" fill="white"/>
</svg>
